<svg version="1.1" viewBox="0.0 0.0 960.0 540.0" fill="none" stroke="none" stroke-linecap="square" stroke-miterlimit="10" xmlns:xlink="http://www.w3.org/1999/xlink" xmlns="http://www.w3.org/2000/svg"><clipPath id="g2cc2f7fd774_0_34.0"><path d="m0 0l960.0 0l0 540.0l-960.0 0l0 -540.0z" clip-rule="nonzero"/></clipPath><g clip-path="url(#g2cc2f7fd774_0_34.0)"><path fill="#000000" fill-opacity="0.0" d="m0 0l960.0 0l0 540.0l-960.0 0z" fill-rule="evenodd"/><g filter="url(#shadowFilter-g2cc2f7fd774_0_34.1)"><use xlink:href="#g2cc2f7fd774_0_34.1" transform="matrix(1.0 0.0 0.0 1.0 -2.4807362204724406 8.651355380577433)"/></g><defs><filter id="shadowFilter-g2cc2f7fd774_0_34.1" filterUnits="userSpaceOnUse"><feGaussianBlur in="SourceAlpha" stdDeviation="17.0" result="blur"/><feComponentTransfer in="blur" color-interpolation-filters="sRGB"><feFuncR type="linear" slope="0" intercept="1.0"/><feFuncG type="linear" slope="0" intercept="0.5686275"/><feFuncB type="linear" slope="0" intercept="0.15686275"/><feFuncA type="linear" slope="0.42" intercept="0"/></feComponentTransfer></filter></defs><g id="g2cc2f7fd774_0_34.1"><defs><linearGradient id="g2cc2f7fd774_0_34.2" gradientUnits="userSpaceOnUse" gradientTransform="matrix(30.959103844514605 0.0 0.0 30.959103844514605 0.0 0.0)" spreadMethod="pad" x1="30.98426238487911" y1="6.720363466950225" x2="0.025158541178710348" y2="6.720138935918498"><stop offset="0.0" stop-color="#ffc900"/><stop offset="1.0" stop-color="#ff9128"/></linearGradient></defs><path fill="url(#g2cc2f7fd774_0_34.2)" d="m159.49992 249.15639l0 1.5258789E-5l0 0c0 -1.5258789E-5 0 -1.5258789E-5 0 -1.5258789E-5zm63.03952 0.96847534c0 0 0 0 0 0l0 0c0 0 0 0 0 0zm-28.017197 -18.36354c-6.2303314 0 -12.28891 1.3923187 -18.175705 4.1769714c-5.886795 2.7846527 -11.242691 6.8909607 -16.067688 12.318909c-0.26231384 0.29605103 -0.52194214 0.5957794 -0.77893066 0.8991852l0 0l0.8491974 -15.168762l-29.512085 0l-0.5621338 25.655563l-11.430084 48.724365l29.34813 0l8.57019 -36.487427l0 0c0.9349365 -3.6266785 2.4191437 -6.7939453 4.452606 -9.50177c2.1548615 -2.8694458 4.7859497 -5.0816345 7.8933105 -6.636505c3.107376 -1.5690308 6.5270233 -2.353531 10.258972 -2.353531c5.277817 0 8.962906 1.4771423 11.055313 4.4314117c2.092392 2.9542847 2.49057 7.209015 1.1945496 12.76416l-8.87706 37.78366l29.348145 0l8.565506 -36.46936l0 0c0.9346771 -3.6342468 2.4204407 -6.8075256 4.4572754 -9.519836c2.1548615 -2.8694458 4.7859497 -5.0816345 7.893326 -6.636505c3.1073608 -1.5690308 6.527008 -2.353531 10.258957 -2.353531c5.277817 0 8.962921 1.4771423 11.055328 4.4314117c2.0923767 2.9542847 2.49057 7.209015 1.1945343 12.76416l-8.877045 37.78366l29.34813 0l9.790527 -41.684998c1.6707764 -7.124176 1.7254333 -13.28717 0.16394043 -18.488953c-1.5458679 -5.215927 -4.6454163 -9.258621 -9.298645 -12.128082c-4.6532288 -2.8694763 -10.774261 -4.304199 -18.363068 -4.304199c-6.1366577 0 -12.171799 1.3923187 -18.105438 4.1769714c-5.9336395 2.7846527 -11.289551 6.8909607 -16.067703 12.318909c-0.5326538 0.6070862 -1.0543671 1.2296295 -1.565155 1.8676605l0 0c-0.14164734 -0.6578369 -0.30697632 -1.30159 -0.4960022 -1.9312592c-1.5458679 -5.215927 -4.621994 -9.258621 -9.228378 -12.128082c-4.6063995 -2.8694763 -10.703995 -4.304199 -18.292816 -4.304199zm-123.49802 -23.17482c-10.555634 0 -20.072906 1.1944275 -28.551777 3.5832977c-8.47887 2.3888702 -15.45089 5.9297485 -20.916107 10.622681c-5.4495716 4.678772 -8.970737 10.403564 -10.563454 17.174377c-1.9674721 8.339813 -0.17177868 14.962204 5.387127 19.867157c5.5745068 4.9049377 15.653915 7.97229 30.238182 9.202087l19.744987 1.6750183c6.667534 0.6078186 11.031906 1.6114197 13.093063 3.0108032c2.076767 1.3852844 2.8262787 3.3359375 2.2485428 5.8520203c-0.7807617 3.3076782 -3.4821472 5.809601 -8.104111 7.5058594c-4.606369 1.6820984 -10.555634 2.5231323 -17.84779 2.5231323c-5.2778397 0 -9.735897 -0.5371399 -13.37413 -1.6114197c-3.622631 -1.0884094 -6.355217 -2.6291504 -8.1978035 -4.6222534c-1.8269386 -2.0072021 -2.6623173 -4.3536377 -2.5061836 -7.0393677l-30.378714 0c-1.2960488 6.770813 -0.15617907 12.742981 3.4196548 17.916504c3.5914335 5.159363 9.29865 9.152588 17.121696 11.979645c7.838644 2.8129272 17.31685 4.219391 28.434664 4.219391c10.836697 0 20.666237 -1.4064636 29.488663 -4.219391c8.822411 -2.827057 16.08332 -6.7778625 21.782738 -11.8524475c5.699417 -5.088684 9.353294 -11.060852 10.961632 -17.916473c1.2960205 -5.555176 0.9915314 -10.198608 -0.9134674 -13.930328c-1.8894119 -3.7458496 -5.6525955 -6.67894 -11.289551 -8.799225c-5.6369705 -2.13443 -13.491241 -3.632782 -23.562828 -4.4950256l-20.962948 -1.971878c-6.0273514 -0.50886536 -10.055988 -1.4559326 -12.085903 -2.8411865c-2.0143166 -1.3993988 -2.7560081 -3.2299194 -2.2251167 -5.491562c0.7339134 -3.1239014 3.247921 -5.484497 7.541977 -7.081787c4.3097 -1.6114197 9.821762 -2.4171295 16.536137 -2.4171295c4.996773 0 9.165939 0.45939636 12.507507 1.3781891c3.3415604 0.9046631 5.8399277 2.2051086 7.4951324 3.9013367c1.6708069 1.6820984 2.4203186 3.6963806 2.2485428 6.0428314l30.238174 0c1.1086502 -6.4174194 -0.14053345 -12.057404 -3.7475662 -16.919937c-3.5914078 -4.8766785 -9.111267 -8.636673 -16.559555 -11.279968c-7.4326706 -2.6432953 -16.333122 -3.9649506 -26.701416 -3.9649506z" fill-rule="evenodd"/><defs><linearGradient id="g2cc2f7fd774_0_34.3" gradientUnits="userSpaceOnUse" gradientTransform="matrix(30.959103844514605 0.0 0.0 30.959103844514605 0.0 0.0)" spreadMethod="pad" x1="30.98426238487911" y1="6.720363466950225" x2="0.025158541178710348" y2="6.720138935918498"><stop offset="0.0" stop-color="#ffc900"/><stop offset="1.0" stop-color="#ff9128"/></linearGradient></defs><path fill="url(#g2cc2f7fd774_0_34.3)" d="m540.96265 245.71452l0 0l0 0c0 0 0 0 0 0zm-163.70544 3.150299c0 0 0 0 0 0l0 0l0 0zm-26.907654 3.2301178c4.0286255 0 7.6278687 0.82691956 10.797668 2.4807434c3.1698303 1.639679 5.7540894 3.8942566 7.752777 6.763733c2.0143127 2.8694763 3.2557068 6.1700745 3.7241516 9.901764c-2.2016907 3.6469116 -4.98114 6.9050903 -8.338318 9.774567c-3.3572083 2.8694763 -7.003296 5.1099243 -10.938232 6.721344c-3.919342 1.59729 -7.8933105 2.395935 -11.921936 2.395935c-3.8412476 0 -7.065735 -0.798645 -9.673401 -2.395935c-2.5920715 -1.6114197 -4.3955994 -3.8518677 -5.410553 -6.721344c-0.99935913 -2.8694763 -1.0696106 -6.127655 -0.21081543 -9.774567c0.8744507 -3.7316895 2.49057 -7.0322876 4.848419 -9.901764c2.3578491 -2.8694458 5.2153625 -5.1240234 8.572571 -6.763733c3.3571777 -1.6538239 6.956421 -2.4807434 10.797668 -2.4807434zm559.7723 -0.5300751c4.793762 0 8.705261 0.7845154 11.734558 2.353531c3.0449219 1.5548706 5.137329 3.7882385 6.2771606 6.7001343c1.1555176 2.9118652 1.241394 6.452759 0.25769043 10.62265c-0.93688965 4.000305 -2.670166 7.4775696 -5.199768 10.431854c-2.514038 2.940155 -5.6604004 5.1947327 -9.439209 6.763733c-3.7631226 1.5690308 -8.041626 2.3535461 -12.835388 2.3535461c-4.793762 0 -8.736511 -0.7845154 -11.828247 -2.3535461c-3.0917358 -1.5690002 -5.199768 -3.823578 -6.3240356 -6.763733c-1.1242676 -2.9542847 -1.210144 -6.4739685 -0.2576294 -10.5590515c0.96813965 -4.0851135 2.701355 -7.5835876 5.199707 -10.495453c2.498413 -2.9118652 5.6604004 -5.1452484 9.486084 -6.7001343c3.8256226 -1.5690155 8.135315 -2.353531 12.929077 -2.353531zm-389.8255 -43.50844l-23.562836 100.31113l29.512115 0l8.57251 -36.49466l0 0c0.9400635 -3.6236572 2.470337 -6.788513 4.5908203 -9.494537c2.2485352 -2.8694458 5.0670166 -5.0816345 8.455444 -6.636505c3.3884277 -1.5690308 7.096924 -2.353531 11.125549 -2.353531c5.855591 0 9.99353 1.4771423 12.413818 4.4314117c2.435913 2.9542847 3.0058594 7.209015 1.7098389 12.76416l-8.877014 37.78366l29.488647 0l9.790527 -41.684998c1.6707764 -7.124176 1.6317749 -13.28717 -0.117126465 -18.488953c-1.7488403 -5.215927 -5.043579 -9.258621 -9.884216 -12.128082c-4.840576 -2.8694763 -11.242676 -4.304199 -19.206299 -4.304199c-6.5269775 0 -12.882202 1.3923187 -19.065735 4.1769714c-5.165039 2.3319244 -9.924988 5.5906677 -14.279724 9.77623l8.845764 -37.658096zm-173.952 23.704895c-8.057251 0 -15.521149 1.6538239 -22.391693 4.961487c-6.8549194 3.293518 -12.702698 7.894562 -17.543304 13.803116c-4.8406067 5.908554 -8.190002 12.813644 -10.048157 20.715256c-1.8113403 7.732025 -1.6942139 14.573486 0.35131836 20.524475c2.0611572 5.9509277 5.7540894 10.551971 11.078735 13.803101c5.3246765 3.2511292 12.0156555 4.8766785 20.072906 4.8766785c7.7762146 0 15.091766 -1.6255493 21.946686 -4.8766785c6.2817993 -2.9792786 11.940735 -7.074402 16.976807 -12.28537l0 0l-1.447815 15.0841675l30.519257 0l3.5601807 -37.25357l13.912842 -37.126358l-30.519257 0l-5.5556335 14.877197c-2.6365051 -5.162842 -6.3903503 -9.231384 -11.261566 -12.205627c-5.3246765 -3.2652435 -11.875092 -4.897873 -19.651306 -4.897873zm107.951965 -17.83168l-17.824371 22.008652l-18.128845 6.127655l-2.7404175 11.598007l16.700104 0l-5.9961243 25.528336c-1.4833984 6.332611 -1.3897095 11.866577 0.2810669 16.601898c1.6708069 4.7353516 5.106079 8.361053 10.305817 10.877106c5.2153625 2.5160828 12.382599 3.7741394 21.501678 3.7741394c4.9967346 0 9.938843 -0.3887329 14.826294 -1.1661682c4.887451 -0.7774353 8.877045 -1.646759 11.9687805 -2.6079712l4.7078857 -20.057983l0 0c-2.8418884 1.0460205 -5.8945923 1.8941345 -9.158112 2.5443726c-3.2634888 0.6502075 -6.9095764 0.9753418 -10.938202 0.9753418c-6.33963 0 -10.454163 -1.0813599 -12.343567 -3.244049c-1.8893738 -2.1768494 -2.2016907 -5.9580383 -0.93688965 -11.343597l5.129486 -21.881424l34.547882 0l4.6376343 -19.67633l-34.547882 0l4.707855 -20.057983zm343.0223 -5.3431396c-12.569946 0 -24.054688 2.127365 -34.454224 6.38208c-10.399475 4.25473 -19.112549 10.205688 -26.139221 17.85289c-7.0111084 7.6330566 -11.711182 16.53122 -14.10022 26.694489c-2.3890991 10.163269 -1.8660278 19.068512 1.5692749 26.715698c3.4352417 7.633087 9.3533325 13.576965 17.75409 17.831696c8.400818 4.2546997 18.88617 6.38208 31.456116 6.38208c11.508179 0 22.11847 -1.7810364 31.830933 -5.3431396c9.712463 -3.5621033 18.058594 -8.573059 25.038391 -15.032898c6.9954834 -6.4739685 12.031311 -14.008087 15.107422 -22.602325l-29.933716 0c-1.9518433 4.25473 -4.6688232 7.8592224 -8.15094 10.813507c-3.4821167 2.9542847 -7.6278687 5.173523 -12.437256 6.657715c-4.793762 1.4700623 -10.118408 2.2051086 -15.973999 2.2051086c-6.7144165 0 -12.25769 -1.1096191 -16.629822 -3.3288574c-4.3721924 -2.2192383 -7.3702393 -5.385559 -8.994141 -9.498932c-1.6239624 -4.1275024 -1.7567139 -9.060699 -0.39819336 -14.799652c1.3428345 -5.738922 3.78656 -10.66507 7.3311768 -14.778442c3.5601807 -4.1275024 8.049438 -7.300888 13.467834 -9.520126c5.418335 -2.2192383 11.48468 -3.3288574 18.199097 -3.3288574c5.855591 0 10.821106 0.7845154 14.896606 2.353531c4.0910645 1.5690155 7.190613 3.8094635 9.298645 6.7213287c2.1079712 2.8977356 3.1463623 6.4315643 3.1151123 10.601471l29.933716 0c0.96813965 -8.594254 -0.5231323 -16.121307 -4.473633 -22.581131c-3.9505615 -6.4739685 -9.946716 -11.491989 -17.988342 -15.054092c-8.041626 -3.562088 -17.816528 -5.3431396 -29.324707 -5.3431396zm117.46423 23.17482c-10.555603 0 -20.15094 1.6538239 -28.78595 4.961487c-8.63501 3.293518 -15.856934 7.894562 -21.66565 13.803116c-5.808716 5.908554 -9.642151 12.813644 -11.500366 20.715256c-1.8112793 7.732025 -1.210083 14.573486 1.8035278 20.524475c3.0292969 5.9509277 8.088501 10.551971 15.177673 13.803101c7.1047363 3.2511292 15.934998 4.8766785 26.4906 4.8766785c10.461914 0 20.026062 -1.6255493 28.692322 -4.8766785c8.681824 -3.2511292 15.927124 -7.852173 21.7359 -13.803101c5.82428 -5.9509583 9.642151 -12.79245 11.453491 -20.524475c1.8581543 -7.9016113 1.272583 -14.806702 -1.7567139 -20.715256c-3.0292969 -5.908554 -8.111938 -10.509598 -15.247864 -13.803116c-7.1359863 -3.307663 -15.934937 -4.961487 -26.396973 -4.961487zm-298.8365 2.226303l19.112549 67.46776l12.892578 0l-0.104003906 0.1484375c-2.904358 4.1557617 -6.0741577 7.018158 -9.509399 8.587189c-3.4353027 1.5690002 -7.1204224 2.3535156 -11.055359 2.3535156c-4.7000732 0 -8.884827 -0.56539917 -12.554321 -1.696228c-3.6694946 -1.1308289 -7.4561157 -2.996704 -11.359802 -5.597595l-4.33313 18.488983c3.7631836 2.7846375 7.838623 4.848419 12.22644 6.1912537c4.3877563 1.342865 9.603088 2.0142822 15.646057 2.0142822c4.793762 0 9.657776 -0.69970703 14.592102 -2.0990906c4.934265 -1.3852844 9.76709 -3.7034607 14.498413 -6.9545593c4.746887 -3.2511292 9.158081 -7.6118774 13.233582 -13.082214l57.24408 -75.82173l-31.245361 0l-35.54962 50.72957l-11.341797 -50.72957z" fill-rule="evenodd"/></g></g></svg>