<svg version="1.1" viewBox="0.0 0.0 960.0 540.0" fill="none" stroke="none" stroke-linecap="square" stroke-miterlimit="10" xmlns:xlink="http://www.w3.org/1999/xlink" xmlns="http://www.w3.org/2000/svg"><clipPath id="g2cc2f7fd774_0_23.0"><path d="m0 0l960.0 0l0 540.0l-960.0 0l0 -540.0z" clip-rule="nonzero"/></clipPath><g clip-path="url(#g2cc2f7fd774_0_23.0)"><path fill="#000000" fill-opacity="0.0" d="m0 0l960.0 0l0 540.0l-960.0 0z" fill-rule="evenodd"/><g filter="url(#shadowFilter-g2cc2f7fd774_0_23.1)"><use xlink:href="#g2cc2f7fd774_0_23.1" transform="matrix(1.0 0.0 0.0 1.0 0.0 27.0)"/></g><defs><filter id="shadowFilter-g2cc2f7fd774_0_23.1" filterUnits="userSpaceOnUse"><feGaussianBlur in="SourceAlpha" stdDeviation="19.5" result="blur"/><feComponentTransfer in="blur" color-interpolation-filters="sRGB"><feFuncR type="linear" slope="0" intercept="1.0"/><feFuncG type="linear" slope="0" intercept="0.5686275"/><feFuncB type="linear" slope="0" intercept="0.15686275"/><feFuncA type="linear" slope="0.36" intercept="0"/></feComponentTransfer></filter></defs><g id="g2cc2f7fd774_0_23.1"><defs><linearGradient id="g2cc2f7fd774_0_23.2" gradientUnits="userSpaceOnUse" gradientTransform="matrix(30.895789801533212 0.0 0.0 30.895789801533212 0.0 0.0)" spreadMethod="pad" x1="30.991025448966948" y1="2.5423999204968357" x2="0.09523564824331943" y2="2.542176256720209"><stop offset="0.0" stop-color="#ffc900"/><stop offset="1.0" stop-color="#ff9128"/></linearGradient></defs><path fill="url(#g2cc2f7fd774_0_23.2)" d="m268.29135 78.54945c-39.87355 0 -75.824615 4.4894714 -107.85321 13.468407c-32.028595 8.978928 -58.36518 22.287941 -79.00976 39.927025c-20.585583 17.585968 -33.886604 39.10353 -39.903027 64.552704c-7.432049 31.346558 -0.6488457 56.237854 20.349659 74.67392c21.057472 18.436005 59.131973 29.96518 114.223526 34.587494l74.58592 6.295868c25.186386 2.2845764 41.67256 6.056793 49.45851 11.31665c7.84494 5.206726 10.6762085 12.538635 8.493774 21.995728c-2.9492188 12.432373 -13.153564 21.836334 -30.612976 28.211914c-17.400421 6.3224487 -39.873505 9.483673 -67.4193 9.483673c-19.936752 0 -36.776825 -2.0189514 -50.520233 -6.056793c-13.684418 -4.0910034 -24.006714 -9.882141 -30.966873 -17.373444c-6.9011917 -7.5444336 -10.0568695 -16.363953 -9.467018 -26.458649l-114.75438 0c-4.8957295 25.449188 -0.5898738 47.896515 12.91761 67.34201c13.566454 19.392395 35.125282 34.40155 64.67653 45.027496c29.610237 10.572815 65.41384 15.859253 107.410805 15.859253c40.935272 0 78.06601 -5.286438 111.39227 -15.859253c33.326233 -10.625977 60.75406 -25.475769 82.28339 -44.549316c21.529358 -19.12674 35.331726 -41.574066 41.407135 -67.34201c4.8957214 -20.880005 3.745514 -38.33316 -3.450592 -52.359406c-7.1371155 -14.079407 -21.352386 -25.10382 -42.645813 -33.073288c-21.293396 -8.022614 -50.962616 -13.654373 -89.00763 -16.895279l-79.18671 -7.411606c-22.76802 -1.912674 -37.986023 -5.4723816 -45.654022 -10.679092c-7.609009 -5.259842 -10.410782 -12.140137 -8.405289 -20.640915c2.7722626 -11.741684 12.268753 -20.61435 28.489517 -26.618027c16.279724 -6.056793 37.101257 -9.08519 62.4646 -9.08519c18.875061 0 34.62393 1.7267303 47.246613 5.1801605c12.622681 3.400299 22.06018 8.288239 28.312561 14.663818c6.3113403 6.3224335 9.142609 13.893433 8.493774 22.712982l114.22351 0c4.1878967 -24.120926 -0.5308533 -45.319717 -14.1562805 -63.59636c-13.566437 -18.329773 -34.41745 -32.462303 -62.55307 -42.397568c-28.07663 -9.935265 -61.697815 -14.902908 -100.863525 -14.902908z" fill-rule="evenodd"/><defs><linearGradient id="g2cc2f7fd774_0_23.3" gradientUnits="userSpaceOnUse" gradientTransform="matrix(30.895789801533212 0.0 0.0 30.895789801533212 0.0 0.0)" spreadMethod="pad" x1="30.991025448966948" y1="2.5423999204968357" x2="0.09523564824331943" y2="2.542176256720209"><stop offset="0.0" stop-color="#ffc900"/><stop offset="1.0" stop-color="#ff9128"/></linearGradient></defs><path fill="url(#g2cc2f7fd774_0_23.3)" d="m760.78754 78.54945c-47.482544 0 -90.8656 7.9960403 -130.14929 23.988098c-39.28369 15.992065 -72.19708 38.359695 -98.74011 67.10292c-26.48404 28.690094 -44.238373 62.1353 -53.263 100.3356c-9.024658 38.200317 -7.0486755 71.67209 5.9279175 100.41528c12.976624 28.690094 35.331726 51.03119 67.06543 67.023254c31.733643 15.992035 71.341736 23.988098 118.82428 23.988098c43.47162 0 83.551575 -6.6943665 120.23993 -20.083069c36.688416 -13.388702 68.21564 -32.223236 94.581726 -56.50354c26.425049 -24.333435 45.44751 -52.65164 57.067505 -84.95453l-113.0733 0c-7.373108 15.992065 -17.636414 29.540161 -30.789917 40.644287c-13.153564 11.1041565 -28.813965 19.445496 -46.9812 25.02414c-18.108276 5.5255127 -38.221985 8.288239 -60.341187 8.288239c-25.363342 0 -46.302856 -4.170685 -62.81848 -12.512054c-16.515686 -8.34137 -27.840698 -20.242462 -33.975098 -35.703217c-6.1343994 -15.5138855 -6.635742 -34.056183 -1.5040894 -55.626892c5.072693 -21.570694 14.303772 -40.086426 27.693237 -55.547195c13.448486 -15.513901 30.406494 -27.441544 50.874146 -35.782898c20.46759 -8.341385 43.383118 -12.51207 68.74646 -12.51207c22.119202 0 40.87628 2.9487 56.27124 8.846115c15.453918 5.8974 27.162354 14.318481 35.125244 25.263199c7.9629517 10.891617 11.885437 24.174072 11.767456 39.84735l113.0733 0c3.6570435 -32.302902 -1.9759521 -60.594513 -16.899048 -84.87483c-14.923096 -24.33345 -37.57312 -43.19452 -67.950195 -56.58323c-30.377014 -13.388702 -67.30133 -20.083061 -110.77295 -20.083061z" fill-rule="evenodd"/></g></g></svg>